# xmcd CD database file
#
# Track frame offsets:
#	150
#	16854
#	40440
#	53103
#	72259
#	103229
#	130187
#	158538
#	185886
#
# Disc length: 2655 seconds
#
# Revision: 0
# Processed by: cddbd v1.5.2PL0 Copyright (c) Steve Scherf et al.
# Submitted via: CDex 1.79
#
DISCID=790a5d09
DTITLE=Dirty Past - Live At Cafe Lietze 2006
DYEAR=2006
DGENRE=Blues
TTITLE0=Stories of horse
TTITLE1=Juniors Wailing
TTITLE2=High Falooting Woman
TTITLE3=Rattlesnake Shake
TTITLE4=I need you tonight
TTITLE5=BAd Penny
TTITLE6=Turn the page
TTITLE7=White Room
TTITLE8=Twilight Zone
EXTD=YEAR: 2006
EXTT0=
EXTT1=
EXTT2=
EXTT3=
EXTT4=
EXTT5=
EXTT6=
EXTT7=
EXTT8=
PLAYORDER=
